<?xml version="1.0" standalone="no"?>
<!DOCTYPE svg PUBLIC "-//W3C//DTD SVG 20010904//EN"
 "http://www.w3.org/TR/2001/REC-SVG-20010904/DTD/svg10.dtd">
<svg version="1.0" xmlns="http://www.w3.org/2000/svg"
 width="200.000000pt" height="200.000000pt" viewBox="0 0 200.000000 200.000000"
 preserveAspectRatio="xMidYMid meet">

<g transform="translate(0.000000,200.000000) scale(0.100000,-0.100000)"
fill="#FF3A9B" stroke="none">
<path  d="M0 1000 l0 -1000 1000 0 1000 0 0 1000 0 1000 -1000 0 -1000 0 0
-1000z m1069 831 c11 -7 11 -17 -4 -60 -14 -44 -20 -51 -43 -51 -36 0 -72 -10
-72 -20 0 -5 22 -16 49 -25 67 -22 85 -44 84 -104 -1 -72 -28 -120 -79 -143
-42 -18 -44 -18 -101 2 -82 29 -129 26 -187 -11 l-49 -30 7 38 c14 89 26 114
61 129 44 18 112 18 165 -1 52 -18 50 -18 50 0 0 20 -26 31 -90 40 -71 9 -87
18 -95 54 -11 52 48 129 130 170 42 21 148 28 174 12z m130 -45 c71 -45 137
-152 143 -231 l3 -40 -54 -1 c-54 -1 -54 -1 -66 -40 -14 -46 -53 -124 -62
-124 -4 0 -23 17 -44 37 l-37 37 19 44 c11 25 28 78 39 120 21 79 18 95 -21
107 -23 8 -24 33 -5 80 18 41 33 43 85 11z m-299 -394 c42 -21 48 -48 26 -123
-20 -66 -20 -197 -1 -269 8 -30 13 -55 12 -56 -1 -1 -21 -4 -44 -8 -40 -6 -43
-4 -58 25 -9 17 -23 63 -31 102 -15 72 -23 93 -25 66 -3 -35 4 -75 22 -126 10
-31 19 -61 19 -68 0 -11 -78 -41 -85 -33 -1 2 -19 44 -39 94 -60 149 -67 250
-22 330 42 75 147 106 226 66z m219 -52 c20 -22 39 -40 43 -40 4 0 28 18 54
41 40 35 52 40 88 37 l41 -3 3 -50 c3 -60 -33 -212 -77 -317 -45 -106 -48
-110 -97 -102 -68 10 -70 14 -46 81 12 32 25 75 31 96 l9 37 -28 -17 c-28 -16
-30 -16 -49 1 -18 17 -19 16 -26 -23 -4 -22 -3 -65 0 -95 l7 -56 -45 0 c-24 0
-49 6 -54 13 -36 44 -41 274 -9 352 30 72 43 85 82 85 30 0 43 -8 73 -40z
m-165 -447 c68 -11 96 -93 60 -181 -17 -44 -43 -59 -111 -69 -38 -5 -47 -11
-55 -34 -8 -23 -16 -28 -56 -31 -26 -3 -50 -2 -54 1 -3 3 0 35 8 71 9 47 11
83 4 130 -11 75 -6 83 53 98 87 23 98 24 151 15z m191 -20 l75 -16 0 -38 c0
-21 -5 -41 -11 -45 -7 -4 -8 -9 -1 -13 5 -3 12 -28 13 -56 l4 -50 -30 3 c-23
2 -26 0 -15 -8 8 -5 25 -10 37 -10 17 0 25 -11 38 -51 25 -73 20 -75 -128 -62
-67 6 -130 14 -139 18 -29 11 -32 44 -9 74 88 108 84 98 78 189 -4 47 -2 82 3
82 5 0 43 -7 85 -17z m-211 -343 c50 -25 71 -73 71 -165 0 -96 -23 -140 -80
-151 -107 -20 -197 90 -199 244 -1 54 3 75 14 83 21 14 159 6 194 -11z m342
-44 c1 0 5 -20 9 -43 l7 -43 -59 -1 -58 -2 47 -6 c26 -4 50 -10 53 -13 3 -3
-1 -22 -9 -42 -14 -33 -19 -36 -58 -37 -31 -2 -35 -3 -15 -6 16 -3 27 -10 25
-16 -6 -18 -111 -68 -157 -74 -50 -7 -60 10 -35 58 19 38 22 87 10 177 l-9 63
124 -7 c68 -4 125 -7 125 -8z"/>
<path d="M766 1264 c-10 -25 -7 -46 6 -42 18 6 30 58 13 58 -7 0 -16 -7 -19
-16z"/>
<path d="M870 766 c0 -16 19 -25 38 -19 22 8 13 33 -13 33 -15 0 -25 -6 -25
-14z"/>
<path d="M850 408 c0 -28 19 -70 30 -63 15 10 12 30 -10 56 -16 19 -19 21 -20
7z"/>
</g>
</svg>
